<svg width="11" height="22" viewBox="0 0 11 22" fill="none" xmlns="http://www.w3.org/2000/svg">
<path d="M9.48671 21.9998C9.60735 22.0005 9.72694 21.9774 9.83862 21.9318C9.95031 21.8862 10.0519 21.8189 10.1375 21.734C10.2235 21.6488 10.2917 21.5474 10.3382 21.4357C10.3847 21.324 10.4087 21.2042 10.4087 21.0832C10.4087 20.9621 10.3847 20.8423 10.3382 20.7306C10.2917 20.6189 10.2235 20.5175 10.1375 20.4323L2.64838 12.9432C2.13339 12.4275 1.84413 11.7286 1.84413 10.9998C1.84413 10.2711 2.13339 9.57213 2.64838 9.0565L10.1375 1.56734C10.3102 1.39473 10.4071 1.16062 10.4071 0.91651C10.4071 0.6724 10.3102 0.438289 10.1375 0.265677C9.96493 0.0930659 9.73082 -0.00390625 9.48671 -0.00390625C9.2426 -0.00390625 9.00849 0.0930659 8.83588 0.265677L1.34671 7.75484C0.91988 8.18059 0.581237 8.68636 0.350178 9.24319C0.119119 9.80002 0.00018288 10.397 0.00018288 10.9998C0.00018288 11.6027 0.119119 12.1996 0.350178 12.7565C0.581237 13.3133 0.91988 13.8191 1.34671 14.2448L8.83588 21.734C8.92153 21.8189 9.02311 21.8862 9.1348 21.9318C9.24648 21.9774 9.36607 22.0005 9.48671 21.9998Z" fill="#374957"/>
</svg>
