<svg width="14" height="14" viewBox="0 0 14 14" fill="none" xmlns="http://www.w3.org/2000/svg">
<g clip-path="url(#clip0_25_1261)">
<path d="M4.0833 13.9999C4.00653 14.0004 3.93042 13.9857 3.85935 13.9566C3.78828 13.9276 3.72364 13.8848 3.66913 13.8308C3.61446 13.7765 3.57106 13.712 3.54144 13.6409C3.51183 13.5698 3.49658 13.4936 3.49658 13.4166C3.49658 13.3396 3.51183 13.2633 3.54144 13.1923C3.57106 13.1212 3.61446 13.0567 3.66913 13.0024L8.43496 8.2366C8.76268 7.90848 8.94676 7.46369 8.94676 6.99994C8.94676 6.53619 8.76268 6.0914 8.43496 5.76327L3.66913 0.997444C3.55929 0.887601 3.49758 0.73862 3.49758 0.583278C3.49758 0.427936 3.55929 0.278956 3.66913 0.169112C3.77897 0.0592681 3.92796 -0.00244141 4.0833 -0.00244141C4.23864 -0.00244141 4.38762 0.0592681 4.49746 0.169112L9.2633 4.93494C9.53492 5.20587 9.75042 5.52773 9.89745 5.88208C10.0445 6.23642 10.1202 6.61629 10.1202 6.99994C10.1202 7.38358 10.0445 7.76345 9.89745 8.1178C9.75042 8.47215 9.53492 8.794 9.2633 9.06493L4.49746 13.8308C4.44296 13.8848 4.37831 13.9276 4.30724 13.9566C4.23617 13.9857 4.16007 14.0004 4.0833 13.9999Z" fill="white"/>
</g>
<defs>
<clipPath id="clip0_25_1261">
<rect width="14" height="14" fill="white"/>
</clipPath>
</defs>
</svg>
